<mxfile host="app.diagrams.net" modified="2024-01-15T13:13:38.217Z" agent="Mozilla/5.0 (Windows NT 10.0; Win64; x64) AppleWebKit/537.36 (KHTML, like Gecko) Chrome/120.0.0.0 Safari/537.36" etag="iN5dYng5Qj1sHKaBmVBZ" version="22.1.18" type="github">
  <diagram name="Page-1" id="oDYJpG0_bWOVpwj81rVX">
    <mxGraphModel dx="363" dy="491" grid="1" gridSize="10" guides="1" tooltips="1" connect="1" arrows="1" fold="1" page="1" pageScale="1" pageWidth="1700" pageHeight="1100" math="0" shadow="0">
      <root>
        <mxCell id="0" />
        <mxCell id="1" parent="0" />
        <mxCell id="qc0nYa39b0gTiiJBl11s-10" value="" style="sketch=0;pointerEvents=1;shadow=0;dashed=0;html=1;strokeColor=none;fillColor=#505050;labelPosition=center;verticalLabelPosition=bottom;verticalAlign=top;outlineConnect=0;align=center;shape=mxgraph.office.devices.laptop;" vertex="1" parent="1">
          <mxGeometry x="520" y="300" width="68" height="39.86" as="geometry" />
        </mxCell>
        <mxCell id="qc0nYa39b0gTiiJBl11s-13" value="" style="ellipse;whiteSpace=wrap;html=1;strokeColor=none;" vertex="1" parent="1">
          <mxGeometry x="570" y="320" width="40" height="40" as="geometry" />
        </mxCell>
        <mxCell id="qc0nYa39b0gTiiJBl11s-12" value="" style="ellipse;whiteSpace=wrap;html=1;strokeColor=none;" vertex="1" parent="1">
          <mxGeometry x="570" y="304.93" width="40" height="30" as="geometry" />
        </mxCell>
        <mxCell id="qc0nYa39b0gTiiJBl11s-1" value="Code" style="shape=step;perimeter=stepPerimeter;whiteSpace=wrap;html=1;fixedSize=1;" vertex="1" parent="1">
          <mxGeometry x="80" y="160" width="120" height="80" as="geometry" />
        </mxCell>
        <mxCell id="qc0nYa39b0gTiiJBl11s-2" value="Build" style="shape=step;perimeter=stepPerimeter;whiteSpace=wrap;html=1;fixedSize=1;" vertex="1" parent="1">
          <mxGeometry x="190" y="160" width="120" height="80" as="geometry" />
        </mxCell>
        <mxCell id="qc0nYa39b0gTiiJBl11s-3" value="Test" style="shape=step;perimeter=stepPerimeter;whiteSpace=wrap;html=1;fixedSize=1;" vertex="1" parent="1">
          <mxGeometry x="300" y="160" width="120" height="80" as="geometry" />
        </mxCell>
        <mxCell id="qc0nYa39b0gTiiJBl11s-4" value="Provision" style="shape=step;perimeter=stepPerimeter;whiteSpace=wrap;html=1;fixedSize=1;" vertex="1" parent="1">
          <mxGeometry x="410" y="160" width="120" height="80" as="geometry" />
        </mxCell>
        <mxCell id="qc0nYa39b0gTiiJBl11s-5" value="Deploy" style="shape=step;perimeter=stepPerimeter;whiteSpace=wrap;html=1;fixedSize=1;" vertex="1" parent="1">
          <mxGeometry x="520" y="160" width="120" height="80" as="geometry" />
        </mxCell>
        <mxCell id="qc0nYa39b0gTiiJBl11s-6" value="Monitor" style="shape=step;perimeter=stepPerimeter;whiteSpace=wrap;html=1;fixedSize=1;" vertex="1" parent="1">
          <mxGeometry x="630" y="160" width="120" height="80" as="geometry" />
        </mxCell>
        <mxCell id="qc0nYa39b0gTiiJBl11s-7" value="Continuous integration" style="shape=flexArrow;endArrow=classic;html=1;rounded=0;" edge="1" parent="1">
          <mxGeometry width="50" height="50" relative="1" as="geometry">
            <mxPoint x="80" y="280" as="sourcePoint" />
            <mxPoint x="400" y="280" as="targetPoint" />
          </mxGeometry>
        </mxCell>
        <mxCell id="qc0nYa39b0gTiiJBl11s-8" value="Continuous delivery" style="shape=flexArrow;endArrow=classic;html=1;rounded=0;" edge="1" parent="1">
          <mxGeometry width="50" height="50" relative="1" as="geometry">
            <mxPoint x="80" y="320" as="sourcePoint" />
            <mxPoint x="520" y="320" as="targetPoint" />
          </mxGeometry>
        </mxCell>
        <mxCell id="qc0nYa39b0gTiiJBl11s-9" value="Continuous deployment" style="shape=flexArrow;endArrow=classic;html=1;rounded=0;" edge="1" parent="1">
          <mxGeometry width="50" height="50" relative="1" as="geometry">
            <mxPoint x="80" y="360" as="sourcePoint" />
            <mxPoint x="750" y="360" as="targetPoint" />
          </mxGeometry>
        </mxCell>
        <mxCell id="qc0nYa39b0gTiiJBl11s-11" value="" style="sketch=0;outlineConnect=0;fontColor=#232F3E;gradientColor=none;fillColor=#232F3D;strokeColor=none;dashed=0;verticalLabelPosition=bottom;verticalAlign=top;align=center;html=1;fontSize=12;fontStyle=0;aspect=fixed;pointerEvents=1;shape=mxgraph.aws4.user;" vertex="1" parent="1">
          <mxGeometry x="570" y="308" width="33" height="33" as="geometry" />
        </mxCell>
        <mxCell id="qc0nYa39b0gTiiJBl11s-14" value="" style="rounded=1;whiteSpace=wrap;html=1;" vertex="1" parent="1">
          <mxGeometry x="530" y="308" width="20" height="2" as="geometry" />
        </mxCell>
        <mxCell id="qc0nYa39b0gTiiJBl11s-15" value="" style="rounded=1;whiteSpace=wrap;html=1;" vertex="1" parent="1">
          <mxGeometry x="530" y="312" width="30" height="2" as="geometry" />
        </mxCell>
        <mxCell id="qc0nYa39b0gTiiJBl11s-16" value="" style="rounded=1;whiteSpace=wrap;html=1;" vertex="1" parent="1">
          <mxGeometry x="530" y="316" width="10" height="2" as="geometry" />
        </mxCell>
        <mxCell id="qc0nYa39b0gTiiJBl11s-17" value="" style="rounded=1;whiteSpace=wrap;html=1;" vertex="1" parent="1">
          <mxGeometry x="530" y="320" width="25" height="2" as="geometry" />
        </mxCell>
        <mxCell id="qc0nYa39b0gTiiJBl11s-18" value="" style="rounded=1;whiteSpace=wrap;html=1;" vertex="1" parent="1">
          <mxGeometry x="530" y="323.5" width="43" height="2" as="geometry" />
        </mxCell>
      </root>
    </mxGraphModel>
  </diagram>
</mxfile>
